<?xml version="1.0" standalone="no"?>
<!DOCTYPE svg PUBLIC "-//W3C//DTD SVG 20010904//EN"
 "http://www.w3.org/TR/2001/REC-SVG-20010904/DTD/svg10.dtd">
<svg version="1.0" xmlns="http://www.w3.org/2000/svg"
 width="311.000000pt" height="308.000000pt" viewBox="0 0 311.000000 308.000000"
 preserveAspectRatio="xMidYMid meet">

<g transform="translate(0.000000,308.000000) scale(0.100000,-0.100000)"
fill="#000000" stroke="none">
<path d="M1108 2935 c-3 -4 -2 -21 3 -38 5 -17 20 -92 35 -166 14 -74 31 -149
39 -167 19 -46 61 -64 158 -69 81 -4 81 -4 17 4 -137 18 -161 44 -190 203 -36
198 -49 246 -62 233z"/>
<path d="M1050 2840 c0 -5 7 -10 15 -10 8 0 15 5 15 10 0 6 -7 10 -15 10 -8 0
-15 -4 -15 -10z"/>
<path d="M1970 2782 c0 -6 9 -12 20 -15 11 -3 20 -3 20 -1 0 2 -9 8 -20 14
-11 6 -20 7 -20 2z"/>
<path d="M1092 2768 c-14 -14 -16 -28 -3 -28 9 0 24 30 18 36 -2 2 -9 -2 -15
-8z"/>
<path d="M1106 2695 c-3 -8 -1 -15 4 -15 6 0 10 7 10 15 0 8 -2 15 -4 15 -2 0
-6 -7 -10 -15z"/>
<path d="M645 2617 c5 -24 3 -37 -4 -37 -6 0 -8 8 -5 18 5 13 4 14 -4 3 -6 -8
-8 -21 -4 -29 3 -10 1 -13 -6 -8 -7 4 -12 1 -12 -8 0 -10 6 -13 15 -10 20 8
19 -6 -2 -23 -10 -8 -12 -11 -4 -7 11 5 13 3 8 -10 -4 -10 -7 -19 -7 -20 0 -1
-19 0 -42 2 -53 6 -68 -13 -68 -86 0 -49 2 -53 20 -47 17 6 20 2 20 -29 0 -36
-35 -90 -52 -80 -4 3 -8 0 -8 -6 0 -7 -6 -10 -12 -7 -7 2 -12 10 -11 16 2 6
-1 11 -6 11 -14 0 -19 -60 -12 -138 7 -77 17 -92 59 -92 12 0 22 -5 22 -11 0
-6 -12 -9 -27 -7 -22 2 -29 -1 -31 -19 -2 -13 5 -29 17 -40 12 -9 21 -25 21
-34 0 -8 3 -19 7 -23 4 -3 6 -34 6 -68 -1 -58 -3 -63 -26 -69 -21 -6 -26 -3
-31 17 -7 27 -24 30 -76 11 -20 -7 -34 -18 -34 -27 1 -8 2 -20 3 -27 0 -6 9
-14 19 -17 10 -3 6 -4 -8 -3 -23 2 -25 -1 -23 -40 1 -34 -1 -40 -15 -38 -9 2
-20 4 -24 4 -11 1 -17 30 -29 146 -17 169 -31 156 -27 -25 3 -148 2 -155 -17
-155 -12 0 -22 -9 -26 -25 -10 -37 -10 -303 0 -319 5 -8 18 -12 29 -9 19 5 20
0 21 -136 1 -77 6 -145 11 -150 7 -7 10 30 10 101 0 110 0 111 25 115 32 7 35
3 37 -51 l1 -46 7 45 7 45 1 -57 c1 -32 7 -58 12 -58 6 0 10 -5 10 -11 0 -5
-5 -7 -11 -3 -7 4 -10 1 -7 -7 8 -25 123 -40 130 -17 2 6 10 8 16 4 7 -4 10
-16 7 -26 -6 -17 0 -19 69 -17 l75 2 7 -55 c3 -30 12 -96 18 -146 10 -75 10
-95 -1 -110 -24 -33 -16 -96 19 -149 31 -47 32 -52 37 -187 4 -97 10 -141 19
-147 9 -6 12 -32 10 -97 l-3 -89 -22 35 c-26 41 -31 32 -6 -11 13 -22 25 -29
47 -29 l29 0 -6 95 -6 95 24 0 c25 0 25 -1 25 -95 0 -76 3 -95 14 -95 8 0 17
8 19 18 4 16 5 16 6 0 1 -17 27 -18 397 -18 l396 0 -6 45 -7 45 65 0 66 0 0
-39 c0 -35 2 -39 22 -33 14 3 19 2 14 -6 -5 -9 12 -12 63 -12 l71 0 0 31 0 32
-50 -5 -50 -5 0 48 0 48 -47 -22 c-40 -17 -72 -22 -189 -25 -142 -4 -188 4
-179 31 3 6 -20 31 -51 54 -30 23 -66 57 -79 75 -88 121 -95 133 -95 173 0 34
6 44 41 75 37 32 40 37 30 63 -6 15 -19 35 -28 45 -10 9 -17 15 -15 13 6 -10
-53 -61 -70 -61 -44 0 -48 108 -5 134 16 9 23 6 43 -20 24 -30 25 -30 81 -21
32 5 74 12 93 17 l35 8 -41 1 c-46 1 -71 23 -68 59 1 12 2 28 3 35 2 21 36 57
54 57 8 0 17 3 19 8 5 11 99 69 126 77 22 6 31 25 12 25 -5 0 -10 5 -10 11 0
6 -10 25 -22 42 -22 30 -23 39 -18 152 3 66 5 190 4 276 0 145 -2 158 -23 187
-33 47 -76 66 -146 65 -170 -2 -210 -4 -185 -12 60 -19 137 -73 81 -57 -60 17
-65 16 -31 -4 19 -12 48 -41 65 -65 19 -29 40 -47 58 -51 47 -10 69 -57 63
-131 -5 -59 -50 -227 -66 -248 -4 -5 -11 -25 -15 -43 -3 -17 -10 -32 -15 -32
-5 0 -11 -8 -14 -17 -12 -39 -101 -117 -120 -106 -8 5 -41 42 -74 83 -34 41
-69 84 -79 95 -144 159 -161 188 -169 278 -8 87 5 102 85 101 47 0 58 2 50 12
-7 9 -5 14 9 18 14 5 17 13 14 36 -2 17 0 30 5 30 5 0 10 6 10 14 0 11 -4 12
-19 3 -10 -7 -18 -15 -18 -19 0 -5 -5 -8 -11 -8 -7 0 -5 10 5 25 16 24 14 51
-4 40 -9 -5 -20 28 -20 64 0 13 -14 39 -30 58 l-31 35 5 154 c5 156 -3 238
-29 307 -36 90 -49 117 -56 117 -4 0 -8 32 -8 70 0 82 -9 101 -89 175 l-54 49
7 -37z m85 -147 c0 -5 -2 -10 -4 -10 -3 0 -8 5 -11 10 -3 6 -1 10 4 10 6 0 11
-4 11 -10z m30 0 c0 -5 -2 -10 -4 -10 -3 0 -8 5 -11 10 -3 6 -1 10 4 10 6 0
11 -4 11 -10z m-511 -977 c-1 -95 -2 -97 -11 -44 -9 48 -4 141 8 141 2 0 3
-44 3 -97z m111 -303 c0 -5 -5 -10 -11 -10 -5 0 -7 5 -4 10 3 6 8 10 11 10 2
0 4 -4 4 -10z m280 -181 c0 -5 -7 -6 -15 -3 -8 4 -15 13 -15 21 0 13 3 13 15
3 8 -7 15 -16 15 -21z m101 -419 c5 -4 12 -22 15 -40 6 -32 5 -33 -9 -20 -9 8
-18 33 -21 55 -3 22 -3 33 0 25 4 -8 11 -17 15 -20z m47 -151 c13 -45 8 -134
-9 -145 -5 -3 -9 16 -10 43 0 26 -4 72 -8 101 -9 65 8 66 27 1z m106 -182 c-3
-15 -10 -25 -15 -21 -11 6 -12 48 -2 84 l7 25 8 -30 c4 -17 5 -42 2 -58z m56
-44 c0 -13 -4 -23 -10 -23 -5 0 -10 17 -10 38 0 27 3 33 10 22 5 -8 10 -25 10
-37z m80 -79 c0 -99 -5 -114 -36 -114 -2 0 -4 54 -4 120 0 118 0 120 20 108
18 -11 20 -24 20 -114z m110 -15 l0 -57 -35 -4 c-20 -2 -38 -2 -40 1 -3 2 -5
40 -5 83 l0 79 40 -22 c39 -22 40 -24 40 -80z m-230 17 c0 -56 -4 -77 -17 -87
-15 -13 -16 -11 -10 26 4 22 7 61 7 88 0 26 5 47 10 47 6 0 10 -31 10 -74z"/>
<path d="M2375 2560 c3 -5 8 -10 11 -10 2 0 4 5 4 10 0 6 -5 10 -11 10 -5 0
-7 -4 -4 -10z"/>
<path d="M2320 2488 c0 -36 4 -35 14 5 4 16 2 27 -4 27 -5 0 -10 -14 -10 -32z"/>
<path d="M2500 2393 c0 -10 5 -25 10 -33 7 -11 10 -7 10 18 0 17 -4 32 -10 32
-5 0 -10 -8 -10 -17z"/>
<path d="M2513 2275 c0 -22 2 -30 4 -17 2 12 2 30 0 40 -3 9 -5 -1 -4 -23z"/>
<path d="M2546 2265 c-3 -9 -6 -25 -6 -36 0 -10 -6 -19 -12 -19 -10 0 -10 -2
0 -8 7 -5 14 -18 17 -30 3 -15 0 -19 -12 -15 -12 5 -12 7 -1 15 10 8 10 9 -2
5 -20 -5 -26 -47 -8 -59 10 -7 10 -11 1 -15 -15 -5 -18 -33 -4 -33 5 0 12 6
14 13 4 7 6 6 6 -5 1 -11 7 -15 20 -11 23 6 40 78 22 96 -8 8 -6 16 5 28 20
23 15 58 -12 76 -19 12 -22 12 -28 -2z"/>
<path d="M2437 2253 c-4 -3 -7 -15 -7 -26 0 -25 13 -14 17 13 3 21 1 24 -10
13z"/>
<path d="M2500 1987 c1 -26 2 -29 11 -14 6 10 22 17 39 17 17 0 30 5 30 11 0
5 -4 8 -9 5 -5 -4 -12 0 -14 6 -4 10 -6 10 -6 1 -1 -9 -8 -10 -26 -3 -23 9
-25 8 -25 -23z"/>
<path d="M2497 1923 c-4 -3 -7 -53 -7 -110 0 -75 3 -102 11 -97 7 4 10 1 7 -7
-3 -8 -10 -13 -16 -12 -14 3 -30 -93 -37 -222 -7 -120 -31 -374 -41 -444 -6
-39 -5 -44 9 -38 10 4 17 2 17 -3 0 -6 12 -10 26 -10 15 0 23 4 19 10 -4 7 3
8 20 4 24 -6 26 -4 21 12 -4 14 -1 20 12 21 57 4 125 13 133 18 5 4 9 15 9 26
0 18 -4 20 -44 14 -32 -5 -45 -3 -48 7 -3 7 -1 85 4 173 5 88 6 177 3 199 -3
21 0 96 6 168 8 96 8 133 0 141 -8 8 -11 2 -12 -23 -1 -19 -3 -27 -6 -17 -4
14 -28 23 -55 18 -12 -2 -10 17 2 24 18 11 11 27 -10 22 -24 -6 -25 5 -6 36 8
12 18 39 21 60 6 32 5 37 -12 37 -11 0 -23 -3 -26 -7z m71 -269 c-10 -10 -28
6 -28 24 0 15 1 15 17 -1 9 -9 14 -19 11 -23z m-31 -109 c5 -16 7 -40 4 -52
l-6 -22 -12 24 c-6 14 -7 25 -2 25 5 0 9 5 9 11 0 5 -4 7 -10 4 -6 -4 -7 1 -3
11 4 11 2 15 -4 11 -9 -6 -10 13 -4 48 2 11 12 -10 28 -60z m-54 -5 c3 -11 1
-23 -4 -26 -5 -3 -9 6 -9 20 0 31 6 34 13 6z m44 -183 c-1 -5 -5 -7 -8 -5 -3
2 -13 -3 -22 -11 -15 -12 -17 -11 -17 5 0 14 7 19 25 19 14 0 24 -4 22 -8z
m-80 -304 c-3 -10 -5 -4 -5 12 0 17 2 24 5 18 2 -7 2 -21 0 -30z"/>
<path d="M2704 1558 c1 -73 -1 -180 -2 -238 -5 -134 -6 -125 25 -139 22 -10
28 -10 35 3 5 9 16 16 25 16 11 0 13 3 5 13 -19 23 -16 32 14 37 l29 5 -2 80
c-2 44 -4 121 -5 172 -4 122 -18 131 -19 12 -1 -137 -14 -165 -22 -50 -4 52
-7 114 -7 138 0 23 -4 43 -9 43 -12 0 -20 -82 -10 -94 14 -15 11 -192 -2 -179
-6 6 -13 30 -17 54 l-6 44 -7 -35 c-5 -30 -7 -26 -8 23 0 32 3 66 8 76 5 9 13
45 17 79 6 57 5 62 -11 56 -9 -4 -20 -2 -24 5 -4 6 -7 -48 -7 -121z m36 -245
c0 -10 -5 -25 -10 -33 -7 -11 -10 -7 -10 18 0 17 5 32 10 32 6 0 10 -8 10 -17z
m25 -2 c3 -5 1 -12 -5 -16 -5 -3 -10 1 -10 9 0 18 6 21 15 7z"/>
<path d="M2376 750 c-4 -19 -10 -44 -13 -54 -4 -14 -1 -18 11 -13 9 4 16 2 16
-3 0 -6 -6 -10 -14 -10 -18 0 -29 -16 -21 -30 4 -7 17 -4 35 7 29 17 45 41 35
51 -3 3 -5 0 -5 -6 0 -7 -3 -12 -8 -12 -4 0 -5 21 -3 46 2 30 0 44 -7 40 -6
-3 -12 0 -15 6 -2 7 -7 -3 -11 -22z m21 -37 c-3 -10 -5 -4 -5 12 0 17 2 24 5
18 2 -7 2 -21 0 -30z"/>
<path d="M2311 557 c-33 -73 -49 -124 -31 -94 17 26 70 157 64 157 -3 0 -18
-28 -33 -63z"/>
<path d="M700 419 c-15 -88 -9 -296 9 -324 l13 -20 -8 20 c-14 40 -17 248 -4
317 6 38 10 72 7 74 -3 3 -10 -27 -17 -67z"/>
<path d="M2296 445 c-3 -8 -1 -15 4 -15 6 0 10 7 10 15 0 8 -2 15 -4 15 -2 0
-6 -7 -10 -15z"/>
<path d="M2220 373 c-31 -34 -70 -90 -70 -99 0 -3 9 -4 20 -1 13 3 21 -1 25
-12 5 -17 15 -161 15 -228 0 -18 5 -33 11 -33 7 0 9 34 6 103 -3 71 -2 85 3
47 l8 -55 -2 66 c-1 50 2 65 12 62 8 -4 12 6 12 31 0 25 -5 36 -14 36 -12 0
-13 6 -5 29 6 16 9 42 7 56 l-3 27 -25 -29z"/>
<path d="M2132 312 c-7 -5 -10 -16 -6 -26 6 -15 7 -15 20 1 22 30 15 43 -14
25z"/>
<path d="M2050 236 c0 -13 4 -36 9 -52 5 -16 12 -55 14 -86 5 -52 4 -57 -16
-60 -23 -3 -38 -38 -16 -38 6 0 18 8 25 18 13 16 14 16 8 -1 -5 -13 -1 -17 15
-17 12 0 21 6 21 13 0 7 3 8 8 2 4 -5 22 -10 40 -10 31 0 32 1 32 45 0 39 -4
47 -28 58 -15 7 -28 8 -30 4 -1 -5 -9 -18 -17 -28 -13 -18 -14 -17 -15 15 0
56 -23 150 -37 155 -8 4 -13 -3 -13 -18z m87 -168 c-3 -8 -6 -5 -6 6 -1 11 2
17 5 13 3 -3 4 -12 1 -19z"/>
<path d="M1996 221 c-3 -4 -5 -56 -5 -115 0 -86 3 -106 15 -106 11 0 14 21 14
115 0 103 -7 134 -24 106z"/>
<path d="M1690 35 c0 -34 1 -35 40 -35 39 0 40 1 40 35 0 34 -1 35 -40 35 -39
0 -40 -1 -40 -35z"/>
</g>
</svg>
